<svg version="1.0" xmlns="http://www.w3.org/2000/svg" width="640" height="160" viewBox="0 0 480 120"><path d="M0 60v60h480V0H0v60zm89.2-45.7c2.6 4.5 6.2 10.6 7.9 13.6l3.1 5.4-4.3-2.5c-2.4-1.4-9.5-5.3-15.6-8.8-6.2-3.5-11.3-6.7-11.3-7 0-.5 14-8.8 15-8.9.3-.1 2.6 3.6 5.2 8.2zm-4.7 13l18 10.2 7.8 13.4c4.3 7.3 7.6 13.5 7.4 13.7-.2.3-30.2-16.8-61.1-34.8l-6.8-4 7.3-4.4c4.1-2.4 7.9-4.3 8.4-4.4.6 0 9.1 4.6 19 10.3zm.1 21.4c18.8 10.9 34.3 20.1 34.4 20.4 0 .7-69.2 40.9-70.3 40.9-.4 0-.7-18.2-.7-40.5 0-28.8.3-40.5 1.1-40.5.6 0 16.6 8.9 35.5 19.7zm-39 61c-.2.3-3.8-1.5-8-3.9l-7.5-4.3-.1-21.6V58.2l7.8-13.5 7.7-13.6.3 39.1c.1 21.5 0 39.3-.2 39.5zM158 58.6v14.5l-2.7-.3-2.8-.3-.3-14.3-.3-14.2h6.1v14.6zm19.8-7.1l.3-7.5h5.9V73.3l-8.2-7.9-8.3-7.9-.5 7.5c-.5 7.3-.6 7.5-3.2 7.8l-2.8.3V43.8l8.3 7.6 8.2 7.5.3-7.4zm28.8-5.9c11 5.2 10.8 20.1-.3 25.5-12.7 6.1-25.8-8.6-18-20.2 4.2-6.3 11.7-8.4 18.3-5.3zm18.6 2.6l2.5 4.1 2.3-4.1c2.1-3.6 2.8-4.2 5.8-4.2h3.3l-3.2 5.7c-1.8 3.2-3.6 6.3-4.1 7-.7.8.4 3.7 3.2 8.8l4.1 7.5h-3c-2.5 0-3.6-.8-5.6-4-1.4-2.2-2.7-4-2.9-4-.3 0-1.5 1.8-2.7 4-1.8 3.2-2.8 4-5.1 4-1.5 0-2.8-.4-2.8-.9 0-.6 1.6-3.8 3.7-7.2l3.6-6.3-3.6-6.7c-2.1-3.7-3.7-7-3.7-7.3 0-.3 1.3-.6 2.9-.6 2.3 0 3.4.8 5.3 4.2zm41.3-1.1c1.4 1.7 2.4 3.7 2.2 4.3-.6 1.8-3.7 1.9-5.7.1-2.3-2.1-5-1.3-5 1.4 0 1.3 1.1 2.3 3.5 3.1 4.1 1.4 7.5 5.3 7.5 8.7 0 1.4-1.3 3.8-3 5.5-2.6 2.5-3.6 2.9-6.2 2.4-6.5-1.3-10.8-8.6-5.2-8.6 1.5 0 3.2.7 3.9 1.7 1.5 2.1 4.5 1.1 4.5-1.6 0-1.2-1.1-2.3-3.2-3-7.9-2.8-10.4-9.8-5.2-14.6 3.9-3.6 8.5-3.4 11.9.6zM291 47c0 2.8-.3 3-3.5 3H284v23.1l-2.7-.3-2.8-.3-.3-11.2-.3-11.2-3.2-.3c-2.7-.2-3.3-.8-3.5-3.1l-.3-2.7H291v3zm36 2.2v5.3l3.1-5.3c2.6-4.4 3.5-5.2 6-5.2 1.6 0 2.9.2 2.9.5s-1.7 3.7-3.7 7.5l-3.8 6.8 4.1 5.9c6 8.7 5.9 8.3 2.1 8.3-2.9 0-3.8-.7-7-5.3l-3.7-5.2v5.2c0 5.2 0 5.3-3 5.3h-3V44h3c2.9 0 3 .1 3 5.2zm22 6.3V67h5.5c5.5 0 5.5 0 5.5 3v3.1l-8.2-.3-8.3-.3-.3-14.3-.3-14.2h6.1v11.5zm35.8-8.7c3.8 2.7 6.6 9.5 5.7 13.9-1.3 7.1-9.9 13.3-16.7 11.9-13.1-2.6-16-19.5-4.6-26.7 4.2-2.6 11.2-2.1 15.6.9zm38.2.2c0 2.8-.3 3-3.5 3H416v23.1l-2.7-.3-2.8-.3-.3-11.3-.3-11.2h-3.4c-3.2 0-3.5-.2-3.5-3v-3h20v3zm20 0v3h-6c-5.7 0-6 .1-6 2.4 0 2.2.5 2.5 4.3 2.8 3.7.3 4.2.6 4.5 3 .3 2.5 0 2.7-4 3-3.9.3-4.3.6-4.6 3-.3 2.8-.3 2.8 5.7 2.8h6.1v6h-17V44h17v3zm8 2.5V55h9v-5.5c0-5.2.1-5.5 2.5-5.5h2.5v29h-2.5c-2.2 0-2.4-.4-2.7-5.8l-.3-5.7-4.2-.3-4.3-.3V67c0 6.1 0 6.1-2.7 5.8l-2.8-.3-.3-14.3-.3-14.2h3.1c3 0 3 0 3 5.5zm-138.2 8.9c3.3 7.4 5.7 13.7 5.4 14-1.5 1.6-5.3.4-6.4-1.9-1-2.1-1.8-2.5-5.8-2.5s-4.8.4-5.8 2.5c-1.1 2.3-4.9 3.5-6.4 1.9-.7-.6 11.3-27.4 12.2-27.4.4 0 3.4 6 6.8 13.4zM26.6 98.7c-.2.2-3.7-1.5-7.8-3.9l-7.4-4.3 7.5-13.2 7.6-13.2.3 17.1c.1 9.4.1 17.3-.2 17.5zm94.2-17.6l-.3 9.1-17.7 10.4-17.7 10.5-15.8-.3-15.8-.3 33-19.2c18.2-10.5 33.4-19.2 33.8-19.2.4-.1.6 4 .5 9zm-.1 29.6c-.2.2-7 .2-15.1.1l-14.6-.3 14.7-8.7 14.8-8.6.3 8.5c.2 4.7.1 8.7-.1 9z"/><path d="M66 69.5v10.6l4.8-2.8c2.6-1.5 6.7-3.9 9.1-5.4l4.4-2.7-2.4-1.5C77.5 65 66.9 59 66.4 59c-.2 0-.4 4.7-.4 10.5zM194.5 52.5c-5.1 5-1.4 14.5 5.7 14.5 4.1 0 8.8-4.8 8.8-9 0-7-9.5-10.6-14.5-5.5zM370.5 52.5c-5.2 5.1-1.5 14.5 5.7 14.5 3.5 0 8.8-4.8 8.8-8 0-7.8-9.1-11.9-14.5-6.5z"/></svg>