<svg xmlns="http://www.w3.org/2000/svg" viewBox="0 0 279.6 57.8"><path fill="#636666" d="M40.5 13.7H40V2.9h2.9c5 0 7.1 1.4 7.1 5 0 2.2-1.1 4-3.2 5-2 .8-4.1.8-6.3.8m3.3 15H40V16h2.1c6 0 8.7 1.9 8.7 6.2-.1 3.9-2.9 6.5-7 6.5zm5.1-14.2c3.5-1.4 5.6-4.2 5.6-7.6 0-5.7-5.2-6.4-10.2-6.4h-9v30.7H42c2.8 0 6.7.1 9.5-1.8 2.7-1.9 4.1-4.5 4.1-7.7 0-5.1-4-6.7-6.7-7.2zm26.4 29.9c-7 0-11.6-5.2-11.6-13.2 0-8.9 4.6-14.4 12-14.4 3.5 0 6.8 1.5 8.8 4.1 2.2 2.9 2.7 5.8 2.7 9.4.2 2.9-1 7.5-3.9 10.6-2.1 2.4-4.8 3.5-8 3.5m0-29.7c-9.8 0-16.6 6.6-16.6 16.1 0 9.5 6.7 15.9 16.5 15.9 10.2 0 17.1-6.7 17.1-16.6 0-10.7-8.5-15.4-17-15.4zm28.2 3c1.7-.1 4.5-.2 6 .1 3 .5 4.5 2.2 4.5 5.1 0 3-2 5.2-5.3 5.9-2 .4-4.3.3-5.2.2V17.7m18.1 27.8l-.8-1.1-2.1-2.5s-7-8.8-8.7-11c5.5-1.2 8.7-4.3 8.7-8.6 0-4.8-3.3-7.1-10.1-7.1h-9.7v30.9l1-.1 1.3-.1 1.2.1 1.2.1V31.4h1.1c.2.3 3.4 4 3.4 4l5.2 6.7 2.9 4h.9l1.7-.1 1.6.1 1.8.1-.6-.7zm-96.1-30l-1.3-.1-1-.1V28c-.5 0-2 .1-2 .1l-6.8.1-6.9-.2s-1.5 0-2.1-.1V15.3l-1.2.1-1.1.1-1.3-.1-1-.1v30.9l1-.1 1.3-.1 1.2.1 1.2.1V31.1c.5-.1 2-.1 2-.1l6.8-.1 6.9.1s1.4 0 2 .1v15.1l1-.1 1.3-.1 1.2.1 1.2.1V15.3l-1.2.1-1.2.1z"/><path fill-rule="evenodd" clip-rule="evenodd" fill="#E31F24" d="M45.513 57.25L34.694 46.433l10.819-10.818 10.819 10.818z"/><path d="M136.3 16.4v4.1h4.8v-4.1h1.3v9.8H141v-4.6h-4.8v4.6H135v-9.8h1.3zm8.2.1c.6-.1 1.6-.2 2.4-.2 1.4 0 2.2.2 2.8.8.5.4.8 1.1.8 1.9 0 1.3-.8 2.2-1.9 2.5.8.3 1.2 1 1.4 2 .3 1.4.6 2.3.8 2.7h-1.3c-.2-.3-.4-1.1-.7-2.4-.3-1.4-.8-1.9-2-1.9h-1.2v4.3h-1.3v-9.7zm1.3 4.5h1.3c1.4 0 2.2-.7 2.2-1.9 0-1.3-.9-1.8-2.3-1.8-.6 0-1.1.1-1.3.1V21zm8.4 5.2l-3.2-9.8h1.4l1.5 4.8c.4 1.3.8 2.5 1.1 3.7.3-1.1.7-2.4 1.1-3.7l1.7-4.9h1.4l-3.5 9.8h-1.5zm7.7-3.1l-1 3.1h-1.3l3.3-9.8h1.5l3.4 9.8h-1.4l-1.1-3.1h-3.4zm3.2-1l-1-2.8c-.2-.6-.4-1.2-.5-1.8-.1.6-.3 1.2-.5 1.8l-1 2.8h3zm6.1-4.6h-3v-1.1h7.3v1.1h-3v8.8h-1.3v-8.8zm5.2 7.2c.6.4 1.4.6 2.3.6 1.3 0 2.1-.7 2.1-1.7 0-.9-.5-1.4-1.9-2-1.6-.6-2.6-1.4-2.6-2.8 0-1.5 1.3-2.7 3.2-2.7 1 0 1.7.2 2.2.5l-.4 1c-.3-.2-1-.5-1.9-.5-1.3 0-1.9.8-1.9 1.5 0 .9.6 1.4 2 1.9 1.7.6 2.5 1.4 2.5 2.9s-1.1 2.8-3.4 2.8c-.9 0-2-.3-2.5-.6l.3-.9zm7.4-8.3h1.3v4.7c.3-.4.5-.7.8-1.1l3-3.7h1.6l-3.6 4.2 3.8 5.7h-1.5l-3.2-4.8-.9 1.1v3.8h-1.3v-9.9zm9.5 6.7l-1 3.1H191l3.3-9.8h1.5l3.4 9.8h-1.4l-1.1-3.1h-3.4zm3.2-1l-1-2.8c-.2-.6-.4-1.2-.5-1.8-.1.6-.3 1.2-.5 1.8l-1 2.8h3zm7.3-5.6c.6-.1 1.4-.2 2.3-.2 1.3 0 2.1.2 2.7.7.5.4.8 1 .8 1.7 0 .9-.6 1.8-1.7 2.2.9.2 2 1 2 2.5 0 .8-.3 1.5-.8 2-.7.6-1.8.9-3.4.9-.9 0-1.5-.1-2-.1v-9.7zm1.2 4h1.2c1.3 0 2.1-.7 2.1-1.6 0-1.2-.9-1.6-2.2-1.6-.6 0-.9 0-1.1.1v3.1zm0 4.8c.2 0 .6.1 1.1.1 1.3 0 2.5-.5 2.5-1.9 0-1.3-1.2-1.9-2.5-1.9H205v3.7zm8.3-2.2l-1 3.1H211l3.3-9.8h1.5l3.4 9.8h-1.4l-1.1-3.1h-3.4zm3.2-1l-1-2.8c-.2-.6-.4-1.2-.5-1.8-.1.6-.3 1.2-.5 1.8l-1 2.8h3zm4.1 4.1v-9.8h1.4l3.2 5c.7 1.2 1.3 2.2 1.8 3.2-.1-1.3-.1-2.5-.1-4v-4.1h1.2v9.8h-1.3l-3.1-5c-.7-1.1-1.3-2.2-1.8-3.3.1 1.2.1 2.4.1 4.1v4.2h-1.4zm9.6-9.8h1.3v4.7c.3-.4.5-.7.8-1.1l3-3.7h1.6l-3.6 4.2 3.8 5.7h-1.5l-3.2-4.8-.9 1.1v3.8h-1.3v-9.9zm9.5 6.7l-1 3.1h-1.3l3.3-9.8h1.5l3.4 9.8h-1.4l-1.1-3.1h-3.4zm3.3-1l-1-2.8c-.2-.6-.4-1.2-.5-1.8-.1.6-.3 1.2-.5 1.8l-1 2.8h3zM133.5 45.5l5.5-8h-5v-1.1h6.6v.8l-5.4 8h5.5v1.1h-7.2v-.8zm10.3-2.3l-1 3.1h-1.3l3.3-9.8h1.5l3.4 9.8h-1.4l-1.1-3.1h-3.4zm3.2-1l-1-2.8c-.2-.6-.4-1.2-.5-1.8-.1.6-.3 1.2-.5 1.8l-1 2.8h3zm15.7-1c0 3.4-2.1 5.2-4.6 5.2-2.6 0-4.4-2-4.4-5 0-3.1 1.9-5.2 4.6-5.2 2.6.1 4.4 2.1 4.4 5zm-7.7.2c0 2.1 1.1 4 3.1 4s3.2-1.9 3.2-4.1c0-2-1-4-3.1-4s-3.2 1.9-3.2 4.1zm9.3-4.8c.6-.1 1.4-.2 2.3-.2 1.3 0 2.1.2 2.7.7.5.4.8 1 .8 1.7 0 .9-.6 1.8-1.7 2.2.9.2 2 1 2 2.5 0 .8-.3 1.5-.8 2-.7.6-1.8.9-3.4.9-.9 0-1.5-.1-2-.1v-9.7zm1.3 4h1.2c1.3 0 2.1-.7 2.1-1.6 0-1.2-.9-1.6-2.2-1.6-.6 0-.9 0-1.1.1v3.1zm0 4.7c.2 0 .6.1 1.1.1 1.3 0 2.5-.5 2.5-1.9 0-1.3-1.2-1.9-2.5-1.9h-1.1v3.7zm6.6 1v-9.8h1.4l3.2 5c.7 1.2 1.3 2.2 1.8 3.2-.1-1.3-.1-2.5-.1-4v-4.1h1.2v9.8h-1.3l-3.1-5c-.7-1.1-1.3-2.2-1.8-3.3.1 1.2.1 2.4.1 4.1v4.2h-1.4zm18.1-5.1c0 3.4-2.1 5.2-4.6 5.2-2.6 0-4.4-2-4.4-5 0-3.1 1.9-5.2 4.6-5.2 2.6.1 4.4 2.1 4.4 5zm-7.7.2c0 2.1 1.1 4 3.1 4s3.2-1.9 3.2-4.1c0-2-1-4-3.1-4s-3.2 1.9-3.2 4.1zm11.5 4.9l-3.2-9.8h1.4l1.5 4.8c.4 1.3.8 2.5 1.1 3.7.3-1.1.7-2.4 1.1-3.7l1.7-4.9h1.4l-3.5 9.8h-1.5zm7.2-9.9v5.8c0 2.2 1 3.1 2.3 3.1 1.5 0 2.4-1 2.4-3.1v-5.8h1.3v5.7c0 3-1.6 4.3-3.7 4.3-2 0-3.5-1.2-3.5-4.2v-5.8h1.2zm12.6 0v9.8h-1.3v-9.8h1.3zm5.3.2c.6-.1 1.6-.2 2.4-.2 1.4 0 2.2.2 2.8.8.5.4.8 1.1.8 1.9 0 1.3-.8 2.2-1.9 2.5.8.3 1.2 1 1.4 2 .3 1.4.6 2.3.8 2.7h-1.3c-.2-.3-.4-1.1-.7-2.4-.3-1.4-.8-1.9-2-1.9h-1.2v4.3H219v-9.7zm1.3 4.4h1.3c1.4 0 2.2-.7 2.2-1.9 0-1.3-.9-1.8-2.3-1.8-.6 0-1.1.1-1.3.1V41zm8.2 2.2l-1 3.1h-1.3l3.3-9.8h1.5l3.4 9.8h-1.4l-1.1-3.1h-3.4zm3.2-1l-1-2.8c-.2-.6-.4-1.2-.5-1.8-.1.6-.3 1.2-.5 1.8l-1 2.8h3zm3.4 3.3l5.5-8h-5v-1.1h6.6v.8l-5.4 8h5.5v1.1h-7.2v-.8zm10.9.8l-3.2-9.8h1.4l1.5 4.8c.4 1.3.8 2.5 1.1 3.7.3-1.1.7-2.4 1.1-3.7l1.7-4.9h1.4l-3.5 9.8h-1.5zm7.3-9.9v9.8h-1.3v-9.8h1.3zm4.1 1.1h-3v-1.1h7.3v1.1h-3v8.8h-1.3v-8.8zm6.8 5.7l-1 3.1h-1.3l3.3-9.8h1.5l3.4 9.8h-1.4l-1.1-3.1h-3.4zm3.2-1l-1-2.8c-.2-.6-.4-1.2-.5-1.8-.1.6-.3 1.2-.5 1.8l-1 2.8h3zm4.1-5.8h1.3v4.7c.3-.4.5-.7.8-1.1l3-3.7h1.6l-3.6 4.2 3.8 5.7h-1.5l-3.2-4.8-.9 1.1v3.8h-1.3v-9.9z" fill="#636666"/></svg>